<?xml version="1.0" encoding="iso-8859-1"?>
<!-- Generator: Adobe Illustrator 16.0.0, SVG Export Plug-In . SVG Version: 6.00 Build 0)  -->
<!DOCTYPE svg PUBLIC "-//W3C//DTD SVG 1.1//EN" "http://www.w3.org/Graphics/SVG/1.1/DTD/svg11.dtd">
<svg version="1.1" id="Capa_1" xmlns="http://www.w3.org/2000/svg" xmlns:xlink="http://www.w3.org/1999/xlink" x="0px" y="0px"
	 width="111.995px" height="111.996px" viewBox="0 0 111.995 111.996" style="enable-background:new 0 0 111.995 111.996;"
	 xml:space="preserve">
<g>
	<path d="M42,0.117c-23.197,0-42,18.802-42,42c0,23.199,18.803,42,42,42c23.199,0,42-18.801,42-42S65.199,0.117,42,0.117z M42,8.288
		c6.487,0,9.506,1.61,9.506,6.725c0,5.115-7.521,9.926-9.506,9.926c-1.992,0-9.515-4.811-9.515-9.926
		C32.485,9.898,35.513,8.288,42,8.288z M13.958,43.512c-4.867-1.578-5.47-4.946-3.473-11.11c2.002-6.175,4.461-8.56,9.333-6.986
		c4.854,1.578,7.126,10.215,6.505,12.104C25.718,39.41,18.826,45.084,13.958,43.512z M34.277,69.5
		c-2.811,4.283-6.216,3.994-11.658,0.453c-5.418-3.543-7.074-6.543-4.283-10.821c2.791-4.291,11.713-4.209,13.379-3.123
		C33.384,57.093,37.053,65.245,34.277,69.5z M42,48.417c-3.48,0-6.299-2.818-6.299-6.3s2.817-6.3,6.299-6.3
		c3.486,0,6.301,2.817,6.301,6.3C48.3,45.598,45.486,48.417,42,48.417z M61.744,69.388c-5.281,3.748-8.684,4.194-11.638,0.022
		c-2.968-4.168,0.388-12.444,1.993-13.589c1.624-1.162,10.551-1.582,13.5,2.559C68.562,62.562,67.037,65.628,61.744,69.388z
		 M70.023,43.512c-4.863,1.572-11.756-4.102-12.361-5.992c-0.625-1.89,1.65-10.527,6.5-12.104c4.877-1.572,7.336,0.812,9.334,6.986
		C75.492,38.56,74.891,41.934,70.023,43.512z M108.803,103.021l-2.935,8.857c-0.705-0.229-17.203-5.861-17.203-20.812
		c0-17.658,13.996-21.816,13.996-37.459c0-7.117-6.627-14.682-15.063-21.369c-1.283-5.95-3.689-11.485-7.009-16.356
		c14.563,8.941,31.406,22.554,31.406,37.726c0,9.706-4.125,15.825-7.767,21.223c-3.348,4.961-6.229,9.24-6.229,16.236
		C98,99.218,108.691,102.983,108.803,103.021z"/>
</g>
<g>
</g>
<g>
</g>
<g>
</g>
<g>
</g>
<g>
</g>
<g>
</g>
<g>
</g>
<g>
</g>
<g>
</g>
<g>
</g>
<g>
</g>
<g>
</g>
<g>
</g>
<g>
</g>
<g>
</g>
</svg>
